<?xml version="1.0" encoding="UTF-8"?>
<svg width="1024" height="216" version="1.1" viewBox="0 0 270.93 57.15" xmlns="http://www.w3.org/2000/svg" xmlns:cc="http://creativecommons.org/ns#" xmlns:dc="http://purl.org/dc/elements/1.1/" xmlns:rdf="http://www.w3.org/1999/02/22-rdf-syntax-ns#">
 <metadata>
  <rdf:RDF>
   <cc:Work rdf:about="">
    <dc:format>image/svg+xml</dc:format>
    <dc:type rdf:resource="http://purl.org/dc/dcmitype/StillImage"/>
    <dc:title/>
   </cc:Work>
  </rdf:RDF>
 </metadata>
 <g transform="translate(-2.9633 -44.683)">
  <g fill="#0070c0" stroke-width="1.4281" aria-label="Sensorfy">
   <path d="m44.074 44.683h-28.378q-1.8272 0-4.054 0.5715-2.1698 0.5715-4.1111 2.0574-1.9414 1.4287-3.2546 3.9433-1.3133 2.4574-1.3133 6.3437 0 3.8862 1.3133 6.4008 1.3133 2.5146 3.2546 4.0005 1.9414 1.4288 4.1111 2.0003 2.2269 0.5715 4.054 0.5715h13.704q2.3982 0 4.054 1.543 1.713 1.5431 1.713 3.9434 0 1.2002-0.45679 2.2289-0.45678 0.97152-1.2562 1.7145-0.74229 0.68577-1.8272 1.143-1.0278 0.40003-2.2269 0.40003h-24.552v7.601h28.892q1.7701 0 3.9398-0.5715 2.2269-0.62869 4.1682-2.1146 1.9414-1.4859 3.2546-4.0005 1.3133-2.5146 1.3133-6.4008 0-3.8862-1.3133-6.4008-1.3133-2.5717-3.2546-4.0576-1.9414-1.4859-4.1682-2.0574-2.1698-0.62864-3.9398-0.62864h-13.761q-1.142 0-2.1698-0.28575-1.0278-0.28575-1.8272-0.91443-0.79939-0.62869-1.2562-1.6002-0.45679-1.0287-0.45679-2.5146 0-2.686 1.713-4.0005 1.713-1.3145 3.9969-1.3145h24.096z"/>
   <path d="m66.571 82.802q-2.5694 0-3.9969-0.5143-1.4275-0.5143-2.1127-1.3716-0.68519-0.85724-0.91358-2.0003-0.22838-1.2002-0.39968-2.5146h18.5v-6.3437h-18.5q0.17129-2.2289 0.74229-3.4862 0.62808-1.2573 1.5988-1.886 1.0278-0.68577 2.284-0.80005 1.3133-0.17147 2.7978-0.17147h11.762v-6.3437h-13.019q-7.1944 0-11.248 4.0577-3.9969 4.0005-3.9969 11.83 0 7.8296 3.9969 11.887 4.054 4.0005 11.248 4.0005h13.019v-6.3436z"/>
   <path d="m102.03 57.37h-19.414v31.775h8.2222v-25.089h8.6219q1.4275 0 2.341 0.45722 0.91361 0.45722 1.4275 1.143 0.51394 0.68577 0.68516 1.4859 0.17131 0.80005 0.17131 1.4859v20.517h8.2222v-22.174q0-1.7716-0.7423-3.4862-0.68516-1.7717-2.0555-3.0861-1.3133-1.3716-3.1975-2.1717-1.8843-0.85724-4.2824-0.85724z"/>
   <path d="m126.7 76.401h8.8503q0.79933 0 1.5417 0.11428 0.79933 0.11428 1.4275 0.45722 0.62812 0.34294 0.97065 0.97152 0.39966 0.62868 0.39966 1.6574 0 1.0287-0.39966 1.6574-0.34263 0.62868-0.97065 0.97152-0.62813 0.34294-1.4275 0.45722-0.7423 0.11428-1.5417 0.11428h-18.671v6.3437h21.926q4.7963 0 7.3086-2.6289 2.5124-2.686 2.5124-6.9152 0-2.0574-0.68516-3.8291-0.62812-1.7716-1.8842-3.029-1.1991-1.2573-3.0262-1.9431-1.8272-0.74296-4.2253-0.74296h-8.8504q-0.79934 0-1.5988-0.11428-0.7423-0.11428-1.3704-0.40003-0.62812-0.34294-1.0278-0.97152-0.34263-0.62868-0.34263-1.6573 0-1.0287 0.34263-1.6574 0.39967-0.62869 1.0278-0.97152 0.62812-0.34294 1.3704-0.45722 0.79933-0.11428 1.5988-0.11428h16.958v-6.3437h-20.213q-2.3982 0-4.2253 0.74296-1.8272 0.68577-3.0833 1.9431-1.1991 1.2573-1.8843 3.0289-0.62812 1.7717-0.62812 3.8291 0 4.172 2.5123 6.858 2.5123 2.6289 7.3086 2.6289z"/>
   <path d="m169.23 63.428q2.3982 0 3.9398 0.74296 1.5988 0.74296 2.5124 2.1146 0.97065 1.3144 1.3133 3.1433 0.39967 1.7716 0.39967 3.829 0 2.0574-0.39967 3.8862-0.34263 1.7716-1.3133 3.1433-0.91361 1.3145-2.5124 2.0574-1.5417 0.74296-3.9398 0.74296t-3.9969-0.74296q-1.5417-0.74296-2.5124-2.0574-0.91361-1.3716-1.3133-3.1433-0.34264-1.8288-0.34264-3.8862 0-2.0574 0.34264-3.829 0.39966-1.8288 1.3133-3.1433 0.97065-1.3716 2.5124-2.1146 1.5988-0.74296 3.9969-0.74296zm-16.901 9.8298q0 4.0577 1.1991 7.1438 1.1991 3.0861 3.3688 5.2007 2.2269 2.0574 5.3102 3.1433 3.1404 1.0287 7.0232 1.0287t6.966-1.0287q3.1404-1.0859 5.3102-3.1433 2.2268-2.1146 3.4259-5.2007 1.1991-3.0861 1.1991-7.1438 0-4.0576-1.1991-7.1438-1.1991-3.0861-3.4259-5.1435-2.1698-2.1146-5.3102-3.1432-3.0833-1.0859-6.966-1.0859t-7.0232 1.0859q-3.0833 1.0287-5.3102 3.1432-2.1697 2.0574-3.3688 5.1435-1.1991 3.0861-1.1991 7.1438z"/>
   <path d="m198.64 64.057h3.9969q0.91361 0 1.5417 0.34294 0.62813 0.34294 0.97065 0.80005 0.39967 0.45722 0.51385 1.0287 0.17131 0.5715 0.17131 0.97152v3.2004h8.2222v-4.7434q0-1.2573-0.45681-2.6861-0.4568-1.4859-1.5417-2.7432-1.0849-1.2573-2.7978-2.0574-1.713-0.80016-4.2253-0.80016h-14.617v31.775h8.2222z"/>
   <path d="m239.98 44.683h-8.7932q-2.341 0-3.9398 0.74296-1.5417 0.74296-2.5124 1.9431-0.97065 1.2002-1.3704 2.7432-0.39966 1.5431-0.39966 3.1433v4.1148h-6.0525v6.6866h6.0525v25.089h8.2222v-25.089h8.7932v-6.6866h-8.7932v-1.6002q0-1.3716 0.34263-2.2289 0.34263-0.91443 0.91361-1.3716 0.62812-0.45722 1.4275-0.62869 0.79934-0.17147 1.7701-0.17147h4.3395z"/>
   <path d="m273.9 91.146v-33.776h-8.2222v25.089h-8.5648q-1.4846 0-2.3982-0.45722-0.91361-0.5143-1.4275-1.2002-0.45681-0.68578-0.62813-1.4859-0.17131-0.80005-0.17131-1.4859v-20.46h-8.2222v21.374q0 2.9146 0.91361 4.9149 0.97065 2.0003 2.5695 3.2576 1.5988 1.2002 3.5972 1.7145 1.9984 0.5143 4.1682 0.5143h10.164v2.2289q0 0.74296-0.34263 1.4287-0.28549 0.74296-0.91362 1.3144-0.62812 0.62869-1.5417 0.97152-0.91361 0.40003-2.1698 0.40003h-15.645v6.3437h18.1q1.8843 0 3.7685-0.80016 1.9414-0.74297 3.483-2.1717 1.5417-1.4287 2.5124-3.3719 0.97065-1.9431 0.97065-4.3434z"/>
  </g>
 </g>
</svg>
